<svg width="23" height="22" viewBox="0 0 23 22" fill="none" xmlns="http://www.w3.org/2000/svg">
<path d="M21.5533 1L13.1064 7.25009L14.6772 3.56671L21.5533 1Z" fill="#E17726" stroke="#E17726" stroke-width="0.25" stroke-linecap="round" stroke-linejoin="round"/>
<path d="M2.06934 1L10.441 7.30842L8.94548 3.5667L2.06934 1Z" fill="#E27625" stroke="#E27625" stroke-width="0.25" stroke-linecap="round" stroke-linejoin="round"/>
<path d="M18.5116 15.4922L16.2642 18.9256L21.0766 20.2506L22.4552 15.5672L18.5116 15.4922Z" fill="#E27625" stroke="#E27625" stroke-width="0.25" stroke-linecap="round" stroke-linejoin="round"/>
<path d="M1.17529 15.5672L2.5455 20.2506L7.34962 18.9256L5.11047 15.4922L1.17529 15.5672Z" fill="#E27625" stroke="#E27625" stroke-width="0.25" stroke-linecap="round" stroke-linejoin="round"/>
<path d="M7.09067 9.69247L5.75391 11.7092L10.5162 11.9259L10.3575 6.80078L7.09067 9.69247Z" fill="#E27625" stroke="#E27625" stroke-width="0.25" stroke-linecap="round" stroke-linejoin="round"/>
<path d="M16.5319 9.69222L13.2151 6.74219L13.1064 11.9256L17.8687 11.7089L16.5319 9.69222Z" fill="#E27625" stroke="#E27625" stroke-width="0.25" stroke-linecap="round" stroke-linejoin="round"/>
<path d="M7.34961 18.9246L10.232 17.533L7.75066 15.5996L7.34961 18.9246Z" fill="#E27625" stroke="#E27625" stroke-width="0.25" stroke-linecap="round" stroke-linejoin="round"/>
<path d="M13.3906 17.533L16.2647 18.9246L15.872 15.5996L13.3906 17.533Z" fill="#E27625" stroke="#E27625" stroke-width="0.25" stroke-linecap="round" stroke-linejoin="round"/>
<path d="M16.2647 18.9249L13.3906 17.5332L13.6245 19.3999L13.5994 20.1916L16.2647 18.9249Z" fill="#D5BFB2" stroke="#D5BFB2" stroke-width="0.25" stroke-linecap="round" stroke-linejoin="round"/>
<path d="M7.34961 18.9249L10.0232 20.1916L10.0065 19.3999L10.232 17.5332L7.34961 18.9249Z" fill="#D5BFB2" stroke="#D5BFB2" stroke-width="0.25" stroke-linecap="round" stroke-linejoin="round"/>
<path d="M10.0736 14.3676L7.68408 13.6676L9.37177 12.8926L10.0736 14.3676Z" fill="#233447" stroke="#233447" stroke-width="0.25" stroke-linecap="round" stroke-linejoin="round"/>
<path d="M13.5493 14.3676L14.2512 12.8926L15.9472 13.6676L13.5493 14.3676Z" fill="#233447" stroke="#233447" stroke-width="0.25" stroke-linecap="round" stroke-linejoin="round"/>
<path d="M7.34995 18.9256L7.76772 15.4922L5.11084 15.5672L7.34995 18.9256Z" fill="#CC6228" stroke="#CC6228" stroke-width="0.25" stroke-linecap="round" stroke-linejoin="round"/>
<path d="M15.855 15.4922L16.2644 18.9256L18.5119 15.5672L15.855 15.4922Z" fill="#CC6228" stroke="#CC6228" stroke-width="0.25" stroke-linecap="round" stroke-linejoin="round"/>
<path d="M17.8687 11.709L13.1064 11.9257L13.5492 14.3674L14.2511 12.8923L15.9471 13.6674L17.8687 11.709Z" fill="#CC6228" stroke="#CC6228" stroke-width="0.25" stroke-linecap="round" stroke-linejoin="round"/>
<path d="M7.68389 13.6674L9.37159 12.8923L10.0734 14.3674L10.5162 11.9257L5.75391 11.709L7.68389 13.6674Z" fill="#CC6228" stroke="#CC6228" stroke-width="0.25" stroke-linecap="round" stroke-linejoin="round"/>
<path d="M5.75439 11.709L7.75124 15.6007L7.68436 13.6674L5.75439 11.709Z" fill="#E27525" stroke="#E27525" stroke-width="0.25" stroke-linecap="round" stroke-linejoin="round"/>
<path d="M15.9468 13.6674L15.8716 15.6007L17.8684 11.709L15.9468 13.6674Z" fill="#E27525" stroke="#E27525" stroke-width="0.25" stroke-linecap="round" stroke-linejoin="round"/>
<path d="M10.5166 11.9258L10.0737 14.3675L10.6335 17.2509L10.7589 13.4508L10.5166 11.9258Z" fill="#E27525" stroke="#E27525" stroke-width="0.25" stroke-linecap="round" stroke-linejoin="round"/>
<path d="M13.106 11.9258L12.8721 13.4425L12.9891 17.2509L13.5488 14.3675L13.106 11.9258Z" fill="#E27525" stroke="#E27525" stroke-width="0.25" stroke-linecap="round" stroke-linejoin="round"/>
<path d="M13.549 14.368L12.9893 17.2513L13.3903 17.5347L15.8717 15.6013L15.9469 13.668L13.549 14.368Z" fill="#F5841F" stroke="#F5841F" stroke-width="0.25" stroke-linecap="round" stroke-linejoin="round"/>
<path d="M7.68408 13.668L7.75097 15.6013L10.2323 17.5347L10.6334 17.2513L10.0736 14.368L7.68408 13.668Z" fill="#F5841F" stroke="#F5841F" stroke-width="0.25" stroke-linecap="round" stroke-linejoin="round"/>
<path d="M13.5991 20.1925L13.6241 19.4008L13.407 19.2174H10.2154L10.0065 19.4008L10.0232 20.1925L7.34961 18.9258L8.28536 19.6925L10.1819 21.0008H13.432L15.3369 19.6925L16.2643 18.9258L13.5991 20.1925Z" fill="#C0AC9D" stroke="#C0AC9D" stroke-width="0.25" stroke-linecap="round" stroke-linejoin="round"/>
<path d="M13.3906 17.5333L12.9895 17.25H10.6334L10.2324 17.5333L10.0068 19.4L10.2157 19.2167H13.4073L13.6245 19.4L13.3906 17.5333Z" fill="#161616" stroke="#161616" stroke-width="0.25" stroke-linecap="round" stroke-linejoin="round"/>
<path d="M21.9126 7.65841L22.6228 4.20838L21.5534 1L13.3906 7.04178L16.532 9.69178L20.9685 10.9835L21.9461 9.84182L21.52 9.53344L22.1967 8.91681L21.6787 8.51679L22.3555 8.0001L21.9126 7.65841Z" fill="#763E1A" stroke="#763E1A" stroke-width="0.25" stroke-linecap="round" stroke-linejoin="round"/>
<path d="M1 4.20838L1.71853 7.65841L1.25901 8.0001L1.94411 8.51679L1.4261 8.91681L2.10285 9.53344L1.67675 9.84182L2.65428 10.9835L7.09079 9.69178L10.2322 7.04178L2.06943 1L1 4.20838Z" fill="#763E1A" stroke="#763E1A" stroke-width="0.25" stroke-linecap="round" stroke-linejoin="round"/>
<path d="M20.9681 10.9831L16.5316 9.69141L17.8684 11.7081L15.8716 15.5998L18.5117 15.5665H22.4553L20.9681 10.9831Z" fill="#F5841F" stroke="#F5841F" stroke-width="0.25" stroke-linecap="round" stroke-linejoin="round"/>
<path d="M7.09057 9.69141L2.65412 10.9831L1.17529 15.5665H5.11047L7.75061 15.5998L5.7538 11.7081L7.09057 9.69141Z" fill="#F5841F" stroke="#F5841F" stroke-width="0.25" stroke-linecap="round" stroke-linejoin="round"/>
<path d="M13.1066 11.9249L13.3906 7.04143L14.6773 3.56641H8.9458L10.2324 7.04143L10.5165 11.9249L10.6251 13.4582L10.6335 17.25H12.9896L12.9979 13.4582L13.1066 11.9249Z" fill="#F5841F" stroke="#F5841F" stroke-width="0.25" stroke-linecap="round" stroke-linejoin="round"/>
</svg>
