
<svg width="25" height="24" viewBox="0 0 25 24" fill="none" xmlns="http://www.w3.org/2000/svg">
<path d="M0.5 7.66823C0.703899 7.31663 0.997416 7.23995 1.39042 7.31989C2.33756 7.51405 3.29622 7.65518 4.24007 7.86239C5.22257 8.07775 6.1541 8.43099 6.94256 9.08117C8.12649 10.0585 8.43728 11.3123 8.12403 12.7636C7.90122 13.798 7.42765 14.7321 6.94174 15.6588C6.26098 16.9567 5.55966 18.2432 4.88548 19.5444C4.59936 20.0967 4.41109 20.6881 4.32805 21.3089C4.26309 21.7919 4.41766 22.0774 4.86657 22.2724C5.51198 22.553 6.20096 22.5734 6.88748 22.5946C7.28541 22.6076 7.68416 22.5946 8.08292 22.5995C8.42083 22.6036 8.65926 22.8214 8.67735 23.1306C8.69462 23.4381 8.47099 23.7081 8.13718 23.7122C7.05273 23.7236 5.96253 23.7832 4.90192 23.4805C4.17677 23.2733 3.56425 22.9176 3.288 22.1639C3.10054 21.6524 3.17865 21.1409 3.29293 20.6302C3.47792 19.7981 3.8331 19.0313 4.22774 18.2832C4.90439 17.0008 5.60735 15.7314 6.27825 14.4466C6.61945 13.7939 6.90145 13.1152 7.04122 12.3834C7.27061 11.1802 6.81184 10.2094 5.73397 9.61305C4.85999 9.1293 3.90709 8.90904 2.9361 8.73854C2.2981 8.62678 1.66091 8.51175 1.02208 8.40815C0.763096 8.36572 0.625793 8.19196 0.501644 7.99291V7.66742L0.5 7.66823Z" fill="#C1C1C1"/>
<path d="M22.4273 5.7266C22.5819 5.80002 22.7134 5.86202 22.8688 5.93544C23.0588 5.55121 23.2347 5.17431 23.4296 4.8064C23.6244 4.43848 24.1161 4.38219 24.3677 4.69382C24.537 4.90348 24.5337 5.127 24.4145 5.36765C23.973 6.25686 23.5397 7.14932 23.104 8.04097C22.2695 9.74759 21.4341 11.4534 20.6004 13.1608C20.5026 13.3615 20.3883 13.5385 20.1466 13.5932C19.747 13.6837 19.3869 13.337 19.479 12.9397C19.5053 12.828 19.5514 12.7187 19.6015 12.6151C20.4796 10.8171 21.3593 9.02072 22.239 7.22437C22.2793 7.14198 22.3171 7.05795 22.3665 6.95109C22.221 6.88093 22.0845 6.81567 21.9348 6.74388C21.8888 6.83117 21.8477 6.90377 21.8115 6.97882C19.7421 11.2062 17.6719 15.4328 15.6066 19.6618C15.452 19.9775 15.2448 20.2296 14.957 20.4351C14.0946 21.0502 13.2387 21.6751 12.3861 22.3033C12.0819 22.5268 11.7555 22.6655 11.374 22.6867C11.3017 22.6908 11.2104 22.7593 11.1701 22.8246C11.0747 22.9747 11.0139 23.1452 10.9235 23.2985C10.759 23.58 10.4441 23.6828 10.1827 23.5522C9.89655 23.4087 9.76172 23.0726 9.92533 22.783C10.1375 22.4101 10.26 22.07 9.96726 21.6727C9.87271 21.5446 9.87764 21.3309 9.87024 21.1555C9.82338 20.0403 9.77487 18.9243 9.75432 17.8083C9.74938 17.5546 9.80776 17.2764 9.91875 17.0488C12.3845 11.9804 14.8608 6.91601 17.3389 1.85245C17.9366 0.631228 19.3614 0.0283658 20.7986 0.370178C22.17 0.696491 23.1508 1.82553 23.2684 3.2197C23.3103 3.72059 23.173 4.1864 22.9601 4.63427C22.7907 4.99076 22.6148 5.344 22.4273 5.72741V5.7266ZM16.0374 7.11016C16.007 7.16401 15.9823 7.20235 15.9617 7.24395C14.3273 10.5854 12.6936 13.9268 11.055 17.2658C10.9909 17.3972 11.0155 17.4673 11.115 17.562C12.0095 18.4128 13.0611 18.9382 14.2886 19.1315C14.5172 19.1674 14.6125 19.1119 14.7096 18.9129C16.1369 15.9793 17.5732 13.0499 19.0071 10.1196C19.2134 9.69701 19.419 9.27443 19.6327 8.83554C18.4266 8.25715 17.2361 7.68529 16.0374 7.11016ZM20.131 7.81418C20.1779 7.72118 20.214 7.65347 20.2477 7.58413C20.7961 6.46325 21.3347 5.33747 21.897 4.22311C22.2078 3.60801 22.2062 3.01902 21.8485 2.4341C21.4111 1.71866 20.7378 1.39072 19.9238 1.40459C19.1682 1.41683 18.6157 1.81085 18.2827 2.49203C17.7311 3.62025 17.1802 4.74848 16.6293 5.8767C16.5973 5.94278 16.571 6.01212 16.5373 6.08962C17.7401 6.66719 18.9257 7.23661 20.1302 7.81418H20.131ZM13.4631 20.1202C12.5045 19.8763 11.6922 19.466 10.9087 18.89C10.9415 19.705 10.9621 20.4612 11.0065 21.2158C11.0238 21.5079 11.3181 21.6335 11.5845 21.4777C11.7448 21.3839 11.8903 21.264 12.0416 21.1547C12.4996 20.8218 12.9567 20.489 13.464 20.1202H13.4631Z" fill="#C1C1C1"/>
</svg>
