<svg width="390" height="844" viewBox="0 0 390 844" fill="none" xmlns="http://www.w3.org/2000/svg">
<g clip-path="url(#clip0_2676_2942)">
<rect width="390" height="844" fill="url(#paint0_linear_2676_2942)"/>
<path d="M465.213 169.076C470.668 170.375 473.555 166.476 472.593 159.003L457.191 66.3937C455.908 57.6202 449.17 47.5471 442.753 44.9475C426.641 38.132 409.697 33.5417 392.377 31.2999C389.489 30.9749 387.885 33.5744 388.206 37.1488L391.414 61.5195C392.056 66.0687 389.168 69.3182 385.639 68.6683C383.815 68.0958 382.201 66.9868 381.001 65.4824C379.801 63.9779 379.07 62.1459 378.901 60.2197C377.938 50.4714 377.297 45.9223 376.013 36.174C375.955 34.663 375.379 33.2197 374.383 32.0928C373.387 30.9658 372.035 30.2257 370.558 30C246.385 33.5744 143.388 120.009 19.5348 123.584C18.2015 123.55 16.8978 123.985 15.845 124.814C14.7922 125.643 14.0553 126.816 13.7593 128.133C12.4758 135.932 12.155 139.831 10.8716 147.305C10.5622 148.939 9.67398 150.402 8.37402 151.419C7.07407 152.436 5.45185 152.938 3.81254 152.829C3.02426 152.789 2.2523 152.587 1.54433 152.234C0.836357 151.88 0.207443 151.384 -0.303703 150.775C-0.81485 150.166 -1.19733 149.457 -1.42753 148.693C-1.65772 147.928 -1.73081 147.124 -1.64217 146.33L1.56646 127.483C1.70576 126.861 1.71447 126.217 1.59201 125.592C1.46955 124.966 1.2187 124.374 0.855659 123.853C0.492615 123.332 0.0255432 122.894 -0.515312 122.568C-1.05617 122.242 -1.6587 122.034 -2.28384 121.959C-19.7295 120.022 -36.8058 115.535 -52.9802 108.636C-59.3974 105.712 -65.8147 107.661 -67.419 113.835C-72.5528 134.307 -77.6865 154.778 -82.4995 175.25C-83.7829 180.449 -80.8952 186.948 -75.4406 191.172C-61.3226 202.22 -45.9212 221.392 -50.4132 240.888C-54.9053 260.385 -74.4779 266.559 -91.8045 260.385C-98.2217 258.11 -103.356 259.41 -104.639 264.284C-109.773 285.081 -114.907 305.552 -119.72 326.023C-121.324 331.872 -115.869 341.296 -107.848 346.495C-88.4998 358.542 -67.8234 368.248 -46.2421 375.415C-43.0334 376.389 -39.8248 375.09 -39.5039 372.49L-36.2953 353.968C-36.1499 353.155 -35.8359 352.382 -35.3739 351.7C-34.9119 351.019 -34.3124 350.444 -33.615 350.014C-32.9177 349.584 -32.1383 349.309 -31.3282 349.206C-30.5181 349.104 -29.6958 349.176 -28.9155 349.419C-27.9461 349.461 -26.9943 349.696 -26.1146 350.111C-25.2349 350.525 -24.4446 351.112 -23.7889 351.836C-23.1332 352.56 -22.6251 353.409 -22.2935 354.332C-21.9619 355.255 -21.8134 356.236 -21.8565 357.218C-23.1399 365.017 -23.4608 368.591 -24.7442 376.39C-24.7626 377.871 -24.2541 379.31 -23.3116 380.444C-22.369 381.577 -21.0553 382.33 -19.6104 382.563C125.74 408.559 264.032 329.273 409.383 355.268C410.069 355.562 410.824 355.647 411.558 355.514C412.291 355.382 412.97 355.037 413.514 354.521C414.057 354.005 414.441 353.34 414.619 352.608C414.797 351.875 414.761 351.107 414.517 350.394C413.554 340.971 412.912 336.097 411.629 326.348C411.308 322.449 413.554 319.524 417.083 320.174C419.383 320.679 421.476 321.883 423.081 323.625C424.687 325.367 425.729 327.564 426.068 329.923L429.276 354.293C429.636 356.111 430.442 357.808 431.62 359.228C432.797 360.648 434.308 361.744 436.014 362.417C457.542 369.721 478.204 379.42 497.62 391.337C505.642 396.536 511.096 393.936 509.813 385.163L494.411 292.554C492.648 284.052 488.131 276.389 481.577 270.783C461.683 254.211 444.036 230.49 440.186 204.495C437.619 188.247 444.357 164.202 465.213 169.076ZM-15.4392 315.3C-15.6175 316.164 -15.9765 316.979 -16.4921 317.69C-17.0076 318.401 -17.6677 318.992 -18.4278 319.423C-19.188 319.854 -20.0305 320.115 -20.8987 320.189C-21.7669 320.262 -22.6405 320.147 -23.4608 319.849C-25.2192 319.531 -26.7929 318.549 -27.8647 317.102C-28.9365 315.655 -29.4266 313.849 -29.2363 312.051L-22.4982 270.783C-22.2765 269.945 -21.8911 269.16 -21.365 268.475C-20.8389 267.79 -20.1828 267.219 -19.4351 266.795C-18.6875 266.371 -17.8635 266.103 -17.0119 266.006C-16.1603 265.91 -15.2983 265.987 -14.4767 266.234C-12.8044 266.475 -11.2826 267.344 -10.213 268.668C-9.1433 269.992 -8.60373 271.675 -8.70109 273.383L-15.4392 315.3ZM-2.28384 231.465C-2.43555 232.284 -2.74965 233.064 -3.20712 233.758C-3.66458 234.451 -4.25594 235.043 -4.94558 235.498C-5.63522 235.954 -6.40878 236.263 -7.21967 236.408C-8.03056 236.552 -8.86201 236.529 -9.66373 236.339C-10.5081 236.258 -11.3281 236.008 -12.0765 235.604C-12.8249 235.2 -13.4867 234.649 -14.0238 233.985C-14.5609 233.32 -14.9624 232.554 -15.2054 231.731C-15.4483 230.908 -15.5278 230.044 -15.4392 229.19C-13.1932 215.543 -10.9471 201.57 -8.3802 187.923C-8.06771 186.25 -7.11955 184.768 -5.73951 183.796C-4.35947 182.823 -2.6578 182.438 -1.0004 182.723C-0.222626 182.757 0.538986 182.959 1.23324 183.316C1.92749 183.673 2.53825 184.176 3.02457 184.792C3.51089 185.407 3.86149 186.121 4.05273 186.885C4.24398 187.65 4.27151 188.446 4.13342 189.222C2.20824 203.195 -0.037796 217.492 -2.28384 231.465ZM190.875 160.302C192.48 149.579 193.442 144.055 195.047 133.332C196.33 143.08 197.293 147.954 198.897 157.703C213.336 154.453 220.716 152.829 235.475 150.229L198.897 166.476C197.293 177.524 196.651 182.723 195.047 193.446C193.121 183.698 192.48 178.824 190.875 169.076L154.297 176.874L190.875 160.302ZM335.905 133.982L350.344 288.005C332.64 288.063 314.957 289.256 297.402 291.579L290.664 182.723C273.016 216.192 255.048 249.337 235.796 281.831C231.379 289.434 225.494 296.058 218.493 301.306C211.491 306.554 203.517 310.319 195.047 312.376C187.358 314.329 179.312 314.329 171.624 312.376C164.772 310.774 158.596 307.021 153.976 301.653C134.938 279.557 116.649 257.135 99.1088 234.389L92.3706 333.172C74.8155 335.495 57.1326 336.689 39.4283 336.747L53.8671 205.469L76.0066 202.545L57.0757 174.925C72.4771 172.65 87.5576 169.726 102.638 166.151C110.018 164.527 116.435 166.151 120.286 171.025C144.35 201.57 169.378 231.14 195.047 260.71C221.357 215.651 246.171 169.509 269.487 122.284C271.138 118.58 273.575 115.291 276.626 112.651C279.676 110.012 283.264 108.086 287.134 107.012C302.536 103.437 317.295 100.513 332.697 98.2381C326.6 111.236 320.183 123.909 314.087 136.906C321.289 135.454 328.578 134.477 335.905 133.982ZM419.33 276.307C419.65 280.531 417.084 283.131 413.233 282.156C411.142 281.645 409.254 280.5 407.821 278.874C406.388 277.249 405.478 275.22 405.212 273.058L398.474 219.767C398.153 215.868 400.72 212.618 404.57 213.593C406.582 214.199 408.378 215.379 409.744 216.993C411.11 218.607 411.987 220.585 412.271 222.691C414.517 240.563 416.763 258.435 419.33 276.307ZM405.212 168.751C405.853 173.3 403.286 175.9 399.757 175.25C397.755 174.85 395.93 173.816 394.546 172.298C393.162 170.779 392.29 168.854 392.056 166.801C389.81 148.929 387.564 131.382 385.639 113.51C385.441 112.685 385.434 111.825 385.618 110.996C385.802 110.167 386.173 109.393 386.7 108.733C387.228 108.073 387.899 107.545 388.661 107.19C389.423 106.835 390.255 106.663 391.094 106.687C393.037 107.147 394.791 108.207 396.113 109.72C397.435 111.234 398.26 113.126 398.474 115.135L405.212 168.751Z" fill="url(#paint1_linear_2676_2942)"/>
</g>
<defs>
<linearGradient id="paint0_linear_2676_2942" x1="-136" y1="-28.4999" x2="476" y2="827.5" gradientUnits="userSpaceOnUse">
<stop stop-color="#95E1FF"/>
<stop offset="0.463542" stop-color="#E7B0FF"/>
<stop offset="1" stop-color="#FFD27B"/>
</linearGradient>
<linearGradient id="paint1_linear_2676_2942" x1="195" y1="30" x2="230.5" y2="363.5" gradientUnits="userSpaceOnUse">
<stop stop-color="white"/>
<stop offset="1" stop-color="white" stop-opacity="0"/>
</linearGradient>
<clipPath id="clip0_2676_2942">
<rect width="390" height="844" fill="white"/>
</clipPath>
</defs>
</svg>
