
<svg width="25" height="24" viewBox="0 0 25 24" fill="none" xmlns="http://www.w3.org/2000/svg">
<path d="M20.7962 23.9003H2.79857C2.76249 23.8864 2.72842 23.8665 2.69134 23.8606C1.42168 23.6478 0.508768 22.6276 0.506764 21.3639C0.497745 17.1241 0.497745 12.8834 0.506764 8.64371C0.50977 7.41276 1.41567 6.38464 2.63622 6.16987C2.72341 6.15397 2.81059 6.13507 2.9118 6.11519C2.80858 5.83678 2.71338 5.58323 2.62119 5.32969C2.26845 4.35726 2.67731 3.47332 3.65235 3.12034C6.32595 2.15288 9.00055 1.18741 11.6751 0.224922C12.6672 -0.132034 13.5441 0.283586 13.9058 1.27093C14.0601 1.69252 14.2225 2.11211 14.3618 2.53867C14.4209 2.72063 14.5021 2.78725 14.7035 2.78625C16.1255 2.77631 17.5464 2.77631 18.9684 2.78327C19.7881 2.78725 20.4335 3.32914 20.5778 4.13155C20.6159 4.34234 20.6059 4.56308 20.6079 4.77984C20.6119 5.22727 20.6089 5.67471 20.6089 6.11916C22.1771 6.24644 23.1602 7.48037 23.0991 8.90123C23.065 9.69071 23.0971 10.4822 23.09 11.2726C23.089 11.4258 23.1151 11.5023 23.2895 11.5401C23.6262 11.6127 23.9228 11.7907 24.1162 12.0731C24.2745 12.3047 24.3737 12.5762 24.5 12.8307V17.1102C24.4479 17.2454 24.4048 17.3846 24.3427 17.5149C24.0931 18.0319 23.6673 18.3272 23.0941 18.4436C23.0941 18.538 23.0941 18.6226 23.0941 18.7061C23.0941 19.6029 23.1041 20.4998 23.09 21.3967C23.073 22.4984 22.3275 23.4628 21.2682 23.781C21.1129 23.8277 20.9546 23.8616 20.7973 23.9013L20.7962 23.9003ZM21.6871 11.4775C21.6871 10.5349 21.6901 9.62807 21.6871 8.72226C21.6841 8.01829 21.1871 7.52511 20.4726 7.52511C14.6925 7.52312 8.91236 7.52312 3.13226 7.52511C2.40374 7.52511 1.9107 8.0163 1.9097 8.73717C1.9077 12.9152 1.9087 17.0933 1.9097 21.2714C1.9097 22.0042 2.40674 22.4994 3.14429 22.4994C8.91637 22.5003 14.6895 22.5013 20.4615 22.4994C21.1851 22.4994 21.6841 22.0022 21.6871 21.2853C21.6911 20.4093 21.6871 19.5333 21.6871 18.6574C21.6871 18.5977 21.6871 18.537 21.6871 18.4535C21.5659 18.4535 21.4666 18.4545 21.3674 18.4535C20.4696 18.4426 19.5657 18.4943 18.6758 18.4068C16.9923 18.2427 15.6845 16.8268 15.5984 15.1763C15.5082 13.4591 16.6476 11.9408 18.3221 11.5709C18.6167 11.5063 18.9243 11.4854 19.227 11.4805C20.0377 11.4685 20.8484 11.4765 21.6871 11.4765V11.4775ZM11.0017 6.12811C11.0017 5.53054 10.9947 4.95881 11.0037 4.38708C11.0168 3.49818 11.7202 2.80017 12.6131 2.78029C12.7183 2.7783 12.8226 2.78029 12.9578 2.78029C12.8205 2.39947 12.7013 2.05743 12.575 1.71737C12.4889 1.4867 12.3977 1.44593 12.1612 1.53144C9.48757 2.49592 6.81397 3.46238 4.14037 4.42885C3.89586 4.51734 3.85778 4.60583 3.94897 4.85739C4.07824 5.21435 4.22154 5.56633 4.33979 5.92627C4.3929 6.08834 4.47407 6.13209 4.63942 6.1311C6.56846 6.12513 8.4975 6.12712 10.4265 6.12712C10.6059 6.12712 10.7853 6.12712 11.0037 6.12712L11.0017 6.12811ZM20.8894 12.8725C20.7331 12.8725 20.5768 12.8715 20.4205 12.8725C19.8894 12.8775 19.3532 12.8347 18.8291 12.8983C17.7098 13.0326 16.9292 14.013 17.0053 15.1176C17.0795 16.1984 17.9914 17.0476 19.1127 17.0565C20.3233 17.0665 21.5338 17.0595 22.7443 17.0585C23.0209 17.0585 23.0931 16.9879 23.0931 16.7175C23.0941 15.5472 23.0941 14.3769 23.0931 13.2066C23.0931 12.9411 23.0269 12.8745 22.7634 12.8735C22.1391 12.8715 21.5138 12.8735 20.8894 12.8735V12.8725ZM19.2029 6.11817C19.2029 5.54048 19.2049 4.98367 19.2019 4.42686C19.2019 4.27175 19.1167 4.17629 18.9564 4.17629C16.857 4.1743 14.7586 4.17231 12.6592 4.18325C12.576 4.18325 12.4237 4.30655 12.4217 4.37615C12.4027 4.95284 12.4107 5.53153 12.4107 6.11817H19.2019H19.2029Z" fill="white"/>
<path d="M19.1017 15.6635C18.7239 15.6585 18.4062 15.3383 18.4072 14.9635C18.4072 14.5747 18.7339 14.2615 19.1287 14.2705C19.5105 14.2794 19.8192 14.5986 19.8122 14.9774C19.8052 15.3532 19.4795 15.6675 19.1027 15.6635H19.1017Z" fill="white"/>
</svg>
