<svg width="43" height="43" viewBox="0 0 43 43" fill="none" xmlns="http://www.w3.org/2000/svg">
<path d="M36.248 19.1951C36.5414 19.2649 36.6967 19.0556 36.6449 18.6543L35.8167 13.6815C35.7476 13.2104 35.3853 12.6695 35.0402 12.5299C34.1738 12.164 33.2626 11.9175 32.3312 11.7971C32.1759 11.7796 32.0897 11.9192 32.1069 12.1112L32.2795 13.4198C32.314 13.6641 32.1587 13.8385 31.9689 13.8036C31.8708 13.7729 31.784 13.7133 31.7194 13.6326C31.6549 13.5518 31.6156 13.4534 31.6065 13.35C31.5548 12.8265 31.5203 12.5823 31.4512 12.0588C31.4481 11.9777 31.4171 11.9002 31.3636 11.8397C31.31 11.7792 31.2373 11.7394 31.1579 11.7273C24.4804 11.9192 18.9416 16.5605 12.2813 16.7524C12.2096 16.7506 12.1395 16.7739 12.0829 16.8184C12.0263 16.863 11.9866 16.926 11.9707 16.9967C11.9017 17.4154 11.8845 17.6248 11.8154 18.0261C11.7988 18.1139 11.751 18.1924 11.6811 18.247C11.6112 18.3017 11.524 18.3286 11.4358 18.3227C11.3934 18.3206 11.3519 18.3098 11.3139 18.2908C11.2758 18.2718 11.242 18.2452 11.2145 18.2125C11.187 18.1798 11.1664 18.1417 11.154 18.1006C11.1417 18.0596 11.1377 18.0164 11.1425 17.9738L11.315 16.9618C11.3225 16.9284 11.323 16.8938 11.3164 16.8602C11.3098 16.8266 11.2963 16.7948 11.2768 16.7669C11.2573 16.7389 11.2322 16.7154 11.2031 16.6979C11.174 16.6803 11.1416 16.6692 11.108 16.6651C10.1698 16.5611 9.25155 16.3202 8.38176 15.9498C8.03666 15.7927 7.69157 15.8974 7.6053 16.2289C7.32922 17.3282 7.05315 18.4274 6.79433 19.5267C6.72531 19.8058 6.8806 20.1548 7.17393 20.3816C7.93314 20.9749 8.76136 22.0043 8.5198 23.0512C8.27823 24.0981 7.2257 24.4296 6.29395 24.0981C5.94885 23.976 5.67278 24.0458 5.60376 24.3075C5.32769 25.4242 5.05161 26.5234 4.79279 27.6227C4.70652 27.9367 4.99985 28.4427 5.43122 28.7219C6.47166 29.3688 7.58355 29.8899 8.74411 30.2748C8.91665 30.3271 9.0892 30.2573 9.10646 30.1178L9.279 29.1232C9.28682 29.0795 9.30371 29.038 9.32855 29.0014C9.3534 28.9648 9.38563 28.9339 9.42313 28.9109C9.46064 28.8878 9.50255 28.873 9.54611 28.8675C9.58967 28.862 9.63389 28.8659 9.67586 28.8789C9.72799 28.8812 9.77917 28.8938 9.82648 28.9161C9.87378 28.9383 9.91628 28.9698 9.95154 29.0087C9.9868 29.0476 10.0141 29.0931 10.032 29.1427C10.0498 29.1923 10.0578 29.245 10.0555 29.2977C9.98644 29.7164 9.96919 29.9084 9.90017 30.3271C9.89918 30.4067 9.92653 30.484 9.97721 30.5448C10.0279 30.6057 10.0985 30.6461 10.1762 30.6586C17.9926 32.0545 25.4294 27.7971 33.2457 29.193C33.2826 29.2088 33.3232 29.2133 33.3627 29.2062C33.4021 29.1991 33.4386 29.1806 33.4679 29.1529C33.4971 29.1252 33.5177 29.0895 33.5273 29.0501C33.5369 29.0108 33.535 28.9695 33.5218 28.9313C33.47 28.4253 33.4355 28.1635 33.3665 27.6401C33.3493 27.4307 33.47 27.2737 33.6598 27.3086C33.7835 27.3357 33.896 27.4003 33.9824 27.4939C34.0687 27.5874 34.1247 27.7054 34.143 27.832L34.3155 29.1406C34.3349 29.2383 34.3782 29.3294 34.4415 29.4056C34.5048 29.4818 34.5861 29.5407 34.6779 29.5769C35.8355 29.969 36.9466 30.4899 37.9908 31.1298C38.4221 31.4089 38.7155 31.2693 38.6464 30.7982L37.8182 25.8255C37.7234 25.3689 37.4804 24.9575 37.128 24.6565C36.0582 23.7666 35.1092 22.4929 34.9022 21.097C34.7641 20.2246 35.1265 18.9334 36.248 19.1951ZM10.4006 27.0469C10.391 27.0932 10.3717 27.137 10.3439 27.1752C10.3162 27.2134 10.2807 27.2451 10.2398 27.2683C10.199 27.2914 10.1537 27.3054 10.107 27.3094C10.0603 27.3133 10.0133 27.3071 9.96919 27.2911C9.87463 27.274 9.79 27.2213 9.73236 27.1436C9.67473 27.0659 9.64837 26.969 9.65861 26.8724L10.021 24.6565C10.0329 24.6114 10.0536 24.5693 10.0819 24.5325C10.1102 24.4957 10.1455 24.4651 10.1857 24.4423C10.2259 24.4195 10.2702 24.4051 10.316 24.4C10.3618 24.3948 10.4081 24.3989 10.4523 24.4122C10.5422 24.4251 10.6241 24.4718 10.6816 24.5429C10.7391 24.614 10.7681 24.7043 10.7629 24.796L10.4006 27.0469ZM11.108 22.5452C11.0998 22.5892 11.0829 22.6311 11.0583 22.6683C11.0337 22.7055 11.0019 22.7373 10.9649 22.7618C10.9278 22.7863 10.8862 22.8029 10.8426 22.8106C10.799 22.8184 10.7542 22.8171 10.7111 22.8069C10.6657 22.8026 10.6216 22.7892 10.5814 22.7675C10.5411 22.7458 10.5056 22.7162 10.4767 22.6805C10.4478 22.6448 10.4262 22.6037 10.4131 22.5595C10.4001 22.5153 10.3958 22.4689 10.4006 22.4231C10.5213 21.6902 10.6421 20.94 10.7802 20.2072C10.797 20.1173 10.848 20.0378 10.9222 19.9855C10.9964 19.9333 11.0879 19.9127 11.177 19.928C11.2188 19.9298 11.2598 19.9406 11.2971 19.9598C11.3345 19.979 11.3673 20.006 11.3935 20.039C11.4196 20.0721 11.4385 20.1104 11.4488 20.1515C11.459 20.1925 11.4605 20.2353 11.4531 20.2769C11.3496 21.0272 11.2288 21.7949 11.108 22.5452ZM21.4953 18.7241C21.5816 18.1483 21.6333 17.8516 21.7196 17.2758C21.7886 17.7993 21.8404 18.061 21.9267 18.5845C22.7031 18.41 23.1 18.3227 23.8937 18.1831L21.9267 19.0556C21.8404 19.6488 21.8059 19.928 21.7196 20.5038C21.6161 19.9803 21.5816 19.7186 21.4953 19.1951L19.5283 19.6139L21.4953 18.7241ZM29.2944 17.3107L30.0709 25.5812C29.1188 25.5843 28.1679 25.6484 27.2238 25.7731L26.8615 19.928C25.9125 21.7251 24.9462 23.5049 23.9109 25.2497C23.6734 25.6579 23.3569 26.0136 22.9804 26.2954C22.6039 26.5772 22.1751 26.7794 21.7196 26.8898C21.3062 26.9947 20.8735 26.9947 20.46 26.8898C20.0916 26.8038 19.7595 26.6023 19.511 26.314C18.4872 25.1276 17.5037 23.9236 16.5605 22.7022L16.1981 28.0065C15.2541 28.1312 14.3032 28.1954 13.3511 28.1984L14.1276 21.1494L15.3181 20.9923L14.3001 19.5092C15.1283 19.3871 15.9393 19.23 16.7503 19.0381C17.1471 18.9509 17.4922 19.0381 17.6993 19.2998C18.9934 20.94 20.3392 22.5278 21.7196 24.1156C23.1345 21.6961 24.4689 19.2184 25.7227 16.6826C25.8115 16.4837 25.9426 16.3071 26.1066 16.1654C26.2706 16.0236 26.4636 15.9202 26.6717 15.8625C27.4999 15.6706 28.2936 15.5136 29.1219 15.3914C28.794 16.0894 28.4489 16.7698 28.1211 17.4678C28.5084 17.3898 28.9003 17.3373 29.2944 17.3107ZM33.7806 24.9531C33.7979 25.1799 33.6598 25.3195 33.4528 25.2671C33.3403 25.2397 33.2388 25.1782 33.1617 25.0909C33.0846 25.0036 33.0357 24.8947 33.0214 24.7786L32.6591 21.9171C32.6418 21.7077 32.7798 21.5332 32.9869 21.5856C33.0951 21.6181 33.1917 21.6815 33.2652 21.7681C33.3386 21.8548 33.3858 21.961 33.401 22.0741C33.5218 23.0338 33.6426 23.9934 33.7806 24.9531ZM33.0214 19.1777C33.0559 19.422 32.9179 19.5616 32.7281 19.5267C32.6204 19.5052 32.5223 19.4497 32.4478 19.3681C32.3734 19.2866 32.3265 19.1833 32.314 19.073C32.1932 18.1134 32.0724 17.1712 31.9689 16.2115C31.9582 16.1672 31.9579 16.121 31.9678 16.0765C31.9777 16.032 31.9976 15.9904 32.026 15.9549C32.0543 15.9195 32.0904 15.8912 32.1314 15.8721C32.1724 15.853 32.2171 15.8438 32.2622 15.8451C32.3667 15.8698 32.461 15.9267 32.5321 16.008C32.6032 16.0892 32.6476 16.1909 32.6591 16.2987L33.0214 19.1777Z" fill="white"/>
</svg>
