<svg width="29" height="18" viewBox="0 0 29 18" fill="none" xmlns="http://www.w3.org/2000/svg">
<path d="M26.3472 7.07027C26.5928 7.1287 26.7228 6.95341 26.6795 6.61743L25.9861 2.45419C25.9283 2.05978 25.625 1.60694 25.336 1.49008C24.6107 1.18369 23.8478 0.97733 23.0681 0.87655C22.938 0.861942 22.8658 0.978803 22.8803 1.13949L23.0247 2.23508C23.0536 2.43959 22.9236 2.58567 22.7647 2.55645C22.6826 2.53071 22.6099 2.48086 22.5559 2.41323C22.5019 2.34559 22.4689 2.26324 22.4613 2.17664C22.418 1.73841 22.3891 1.5339 22.3313 1.09567C22.3287 1.02774 22.3028 0.962857 22.2579 0.912196C22.2131 0.861535 22.1522 0.828261 22.0857 0.818115C16.4952 0.978801 11.8581 4.86448 6.28209 5.02517C6.22206 5.02366 6.16336 5.0432 6.11596 5.08048C6.06857 5.11775 6.03539 5.17048 6.02206 5.22968C5.96428 5.58027 5.94984 5.75557 5.89205 6.09155C5.87812 6.16501 5.83814 6.23078 5.77961 6.27651C5.72108 6.32224 5.64805 6.34478 5.57424 6.33988C5.53875 6.33811 5.504 6.32901 5.47213 6.31313C5.44025 6.29725 5.41194 6.27493 5.38892 6.24755C5.36591 6.22017 5.34869 6.18831 5.33833 6.15394C5.32796 6.11957 5.32467 6.08342 5.32866 6.04772L5.47312 5.20047C5.47939 5.17252 5.47979 5.14355 5.47427 5.11544C5.46876 5.08732 5.45747 5.06069 5.44112 5.03728C5.42478 5.01386 5.40375 4.99418 5.3794 4.97951C5.35505 4.96484 5.32792 4.95552 5.29978 4.95213C4.51434 4.86506 3.74554 4.66333 3.01734 4.35321C2.72843 4.22174 2.43951 4.30939 2.36728 4.58694C2.13615 5.50723 1.90502 6.42753 1.68833 7.34782C1.63055 7.58155 1.76056 7.87371 2.00614 8.06361C2.64175 8.56027 3.33515 9.42214 3.13291 10.2986C2.93067 11.1751 2.04948 11.4526 1.26941 11.1751C0.980494 11.0728 0.749361 11.1313 0.691578 11.3504C0.460446 12.2853 0.229312 13.2056 0.0126258 14.1259C-0.059603 14.3888 0.185977 14.8124 0.547121 15.0462C1.41819 15.5877 2.34908 16.0241 3.3207 16.3462C3.46516 16.3901 3.60962 16.3316 3.62407 16.2148L3.76852 15.3821C3.77507 15.3456 3.78921 15.3108 3.81001 15.2802C3.83081 15.2495 3.8578 15.2237 3.88919 15.2044C3.92059 15.185 3.95568 15.1727 3.99215 15.1681C4.02862 15.1634 4.06564 15.1667 4.10077 15.1776C4.14442 15.1795 4.18727 15.1901 4.22688 15.2087C4.26648 15.2274 4.30206 15.2537 4.33158 15.2863C4.3611 15.3188 4.38398 15.357 4.39891 15.3985C4.41384 15.44 4.42052 15.4841 4.41858 15.5282C4.3608 15.8788 4.34635 16.0395 4.28857 16.3901C4.28775 16.4567 4.31064 16.5214 4.35307 16.5723C4.39551 16.6233 4.45465 16.6571 4.51971 16.6676C11.0636 17.8362 17.2898 14.2719 23.8337 15.4406C23.8646 15.4538 23.8986 15.4576 23.9316 15.4516C23.9646 15.4457 23.9952 15.4301 24.0197 15.407C24.0441 15.3838 24.0614 15.3539 24.0694 15.321C24.0774 15.288 24.0758 15.2535 24.0648 15.2214C24.0215 14.7978 23.9926 14.5787 23.9348 14.1405C23.9204 13.9652 24.0215 13.8337 24.1804 13.8629C24.2839 13.8856 24.3781 13.9397 24.4504 14.018C24.5227 14.0964 24.5696 14.1951 24.5849 14.3011L24.7293 15.3967C24.7455 15.4785 24.7818 15.5548 24.8348 15.6186C24.8878 15.6824 24.9559 15.7317 25.0327 15.7619C26.0019 16.0903 26.9321 16.5263 27.8063 17.062C28.1674 17.2958 28.413 17.1789 28.3552 16.7845L27.6618 12.6212C27.5824 12.239 27.379 11.8946 27.084 11.6425C26.1883 10.8975 25.3938 9.83115 25.2205 8.66253C25.1049 7.93213 25.4083 6.85115 26.3472 7.07027ZM4.7075 13.6438C4.69947 13.6826 4.68331 13.7193 4.6601 13.7512C4.63689 13.7832 4.60717 13.8098 4.57295 13.8292C4.53872 13.8485 4.50079 13.8603 4.4617 13.8636C4.42262 13.8669 4.38328 13.8617 4.34635 13.8483C4.26719 13.834 4.19634 13.7898 4.14808 13.7248C4.09983 13.6597 4.07776 13.5786 4.08633 13.4977L4.38969 11.6425C4.39967 11.6048 4.41702 11.5696 4.44071 11.5388C4.46439 11.508 4.49394 11.4823 4.5276 11.4632C4.56126 11.4442 4.59835 11.4321 4.63669 11.4278C4.67503 11.4235 4.71384 11.4269 4.75083 11.438C4.82612 11.4489 4.89463 11.4879 4.94279 11.5474C4.99095 11.607 5.01524 11.6826 5.01086 11.7594L4.7075 13.6438ZM5.29978 9.87497C5.29294 9.91182 5.2788 9.94688 5.25821 9.97804C5.23761 10.0092 5.21099 10.0358 5.17994 10.0563C5.14889 10.0768 5.11406 10.0907 5.07756 10.0972C5.04105 10.1037 5.00361 10.1026 4.96752 10.0941C4.92951 10.0904 4.89259 10.0792 4.85889 10.061C4.8252 10.0429 4.7954 10.0181 4.77122 9.98825C4.74704 9.95837 4.72896 9.92393 4.71803 9.88694C4.70709 9.84995 4.70351 9.81112 4.7075 9.77272C4.80862 9.15919 4.90974 8.53106 5.02531 7.91753C5.03938 7.84233 5.08206 7.77571 5.1442 7.732C5.20633 7.68829 5.28294 7.67098 5.35756 7.6838C5.39257 7.68532 5.42686 7.69441 5.45812 7.71045C5.48938 7.72648 5.51687 7.7491 5.53877 7.77677C5.56066 7.80445 5.57645 7.83654 5.58506 7.8709C5.59367 7.90526 5.59491 7.94108 5.58869 7.97596C5.50202 8.60409 5.4009 9.24684 5.29978 9.87497ZM13.9961 6.67586C14.0683 6.1938 14.1117 5.94546 14.1839 5.46341C14.2417 5.90164 14.285 6.12076 14.3573 6.55899C15.0073 6.41292 15.3396 6.33988 16.0041 6.22302L14.3573 6.95341C14.285 7.45007 14.2561 7.6838 14.1839 8.16586C14.0972 7.72762 14.0683 7.5085 13.9961 7.07027L12.3493 7.42086L13.9961 6.67586ZM20.5256 5.49262L21.1757 12.4167C20.3786 12.4193 19.5825 12.473 18.7921 12.5774L18.4888 7.6838C17.6942 9.18841 16.8853 10.6784 16.0185 12.1392C15.8197 12.481 15.5547 12.7787 15.2395 13.0147C14.9243 13.2506 14.5653 13.4199 14.1839 13.5123C13.8378 13.6001 13.4755 13.6001 13.1294 13.5123C12.8209 13.4403 12.5429 13.2716 12.3349 13.0303C11.4777 12.0369 10.6543 11.029 9.86464 10.0064L9.56127 14.4472C8.77091 14.5517 7.9748 14.6053 7.17772 14.6079L7.82778 8.70635L8.82454 8.57488L7.97224 7.33322C8.66564 7.23096 9.34459 7.09949 10.0235 6.9388C10.3558 6.86576 10.6447 6.9388 10.8181 7.15792C11.9015 8.53106 13.0283 9.86037 14.1839 11.1897C15.3685 9.16406 16.4856 7.08975 17.5353 4.96674C17.6097 4.80025 17.7194 4.65239 17.8568 4.53372C17.9941 4.41504 18.1556 4.32847 18.3298 4.28017C19.0232 4.11949 19.6878 3.98802 20.3811 3.88576C20.1067 4.47007 19.8178 5.03978 19.5433 5.6241C19.8676 5.55879 20.1957 5.51487 20.5256 5.49262ZM24.2815 11.8909C24.2959 12.0808 24.1804 12.1976 24.007 12.1538C23.9129 12.1308 23.8279 12.0793 23.7634 12.0063C23.6988 11.9332 23.6579 11.842 23.6459 11.7448L23.3425 9.3491C23.3281 9.1738 23.4436 9.02772 23.617 9.07154C23.7076 9.09877 23.7885 9.15184 23.85 9.22439C23.9114 9.29694 23.9509 9.38588 23.9637 9.48056C24.0648 10.284 24.1659 11.0874 24.2815 11.8909ZM23.6459 7.05566C23.6748 7.26017 23.5592 7.37704 23.4003 7.34782C23.3102 7.32985 23.228 7.28337 23.1657 7.21511C23.1034 7.14684 23.0641 7.06032 23.0536 6.96802C22.9525 6.16459 22.8514 5.37576 22.7647 4.57233C22.7558 4.53523 22.7555 4.49655 22.7638 4.4593C22.7721 4.42204 22.7887 4.38722 22.8125 4.35755C22.8362 4.32787 22.8664 4.30413 22.9007 4.28818C22.9351 4.27223 22.9725 4.26449 23.0103 4.26557C23.0978 4.28625 23.1767 4.3339 23.2362 4.40194C23.2958 4.46998 23.3329 4.55505 23.3425 4.64537L23.6459 7.05566Z" fill="url(#paint0_linear_2627_1935)"/>
<defs>
<linearGradient id="paint0_linear_2627_1935" x1="2.71885e-07" y1="8.99994" x2="28.3636" y2="8.99994" gradientUnits="userSpaceOnUse">
<stop stop-color="#95E1FF"/>
<stop offset="0.484375" stop-color="#E7B0FF"/>
<stop offset="1" stop-color="#FFCF72"/>
</linearGradient>
</defs>
</svg>
